ffmpeg started on 2025-07-20 at 12:42:38
Report written to "D:\Convert\FFMetrics\reports\psnr_report-6.txt"
Log level: 32
Command line:
ffmpeg -hide_banner -nostdin -i "G:\\\xc0\xed\xe8\xec\xe5\\\xce\xed\xe3\xee\xe8\xed\xe3\xe8\\!_10_\xc2\xe5\xf1\xed\xe0_2018\\\xcf\xee\xf2\xe5\xf0\xff\xed\xed\xe0\xff \xef\xe5\xf1\xed\xff\\[SHIZA Project] Lost Song ONA [11] [MVO]_HEVC.mkv" -i "G:\\\xc0\xed\xe8\xec\xe5\\\xce\xed\xe3\xee\xe8\xed\xe3\xe8\\!_10_\xc2\xe5\xf1\xed\xe0_2018\\\xcf\xee\xf2\xe5\xf0\xff\xed\xed\xe0\xff \xef\xe5\xf1\xed\xff\\[SHIZA Project] Lost Song ONA [11] [MVO].mkv" -lavfi "[0:v]settb=AVTB,setpts=PTS-STARTPTS,format=pix_fmts=yuv420p10,fps=24000/1001,scale=1280:720:flags=bicubic[main];[1:v]settb=AVTB,setpts=PTS-STARTPTS,format=pix_fmts=yuv420p,fps=24000/1001,scale=1280:720:flags=bicubic[ref];[main][ref]psnr=eof_action=endall:stats_file='D\\:/Convert/FFMetrics/logs/psnr_logfile-6.txt'" -f null -
Input #0, matroska,webm, from 'G:\Аниме\Онгоинги\!_10_Весна_2018\Потерянная песня\[SHIZA Project] Lost Song ONA [11] [MVO]_HEVC.mkv':
  Metadata:
    ENCODER         : Lavf61.7.100
  Duration: 00:23:57.18, start: -0.021000, bitrate: 517 kb/s
  Stream #0:0(jpn): Video: hevc (Main 10), yuv420p10le(tv, bt709, progressive), 1280x720 [SAR 1:1 DAR 16:9], 23.98 fps, 23.98 tbr, 1k tbn (default)
      Metadata:
        title           : www.SHIZA-Project.com
        ENCODER         : Lavc61.19.100 libx265
        BPS             : 321022
        DURATION        : 00:23:57.143708333
        NUMBER_OF_FRAMES: 34457
        NUMBER_OF_BYTES : 57669375
        _STATISTICS_WRITING_APP: mkvpropedit v66.0.0 ('Josie') 64-bit
        _STATISTICS_WRITING_DATE_UTC: 2025-07-19 13:52:08
        _STATISTICS_TAGS: BPS DURATION NUMBER_OF_FRAMES NUMBER_OF_BYTES
  Stream #0:1(rus): Audio: aac (LC), 48000 Hz, stereo, fltp (default)
      Metadata:
        title           : SHIZA Project MVO
        ENCODER         : Lavc61.19.100 aac
        BPS             : 191974
        DURATION        : 00:23:57.162000000
        NUMBER_OF_FRAMES: 67368
        NUMBER_OF_BYTES : 34487268
        _STATISTICS_WRITING_APP: mkvpropedit v66.0.0 ('Josie') 64-bit
        _STATISTICS_WRITING_DATE_UTC: 2025-07-19 13:52:08
        _STATISTICS_TAGS: BPS DURATION NUMBER_OF_FRAMES NUMBER_OF_BYTES
  Stream #0:2(rus): Subtitle: ass (ssa) (default)
      Metadata:
        BPS             : 9
        DURATION        : 00:15:53.660000000
        NUMBER_OF_FRAMES: 12
        NUMBER_OF_BYTES : 1164
        _STATISTICS_WRITING_APP: mkvpropedit v66.0.0 ('Josie') 64-bit
        _STATISTICS_WRITING_DATE_UTC: 2025-07-19 13:52:08
        _STATISTICS_TAGS: BPS DURATION NUMBER_OF_FRAMES NUMBER_OF_BYTES
Input #1, matroska,webm, from 'G:\Аниме\Онгоинги\!_10_Весна_2018\Потерянная песня\[SHIZA Project] Lost Song ONA [11] [MVO].mkv':
  Metadata:
    encoder         : libebml v1.3.1 + libmatroska v1.4.2
    creation_time   : 2018-07-23T22:02:35.000000Z
  Duration: 00:23:57.16, start: 0.000000, bitrate: 1139 kb/s
  Stream #1:0(jpn): Video: h264 (Main), yuv420p(progressive), 1280x720 [SAR 1:1 DAR 16:9], 23.98 fps, 23.98 tbr, 1k tbn (default)
      Metadata:
        title           : www.SHIZA-Project.com
        BPS             : 945537
        BPS-eng         : 945537
        DURATION        : 00:23:57.144000000
        DURATION-eng    : 00:23:57.144000000
        NUMBER_OF_FRAMES: 34457
        NUMBER_OF_FRAMES-eng: 34457
        NUMBER_OF_BYTES : 169859153
        NUMBER_OF_BYTES-eng: 169859153
        _STATISTICS_WRITING_APP: mkvmerge v7.8.0 ('River Man') 32bit built on Mar 27 2015 16:18:02
        _STATISTICS_WRITING_APP-eng: mkvmerge v7.8.0 ('River Man') 32bit built on Mar 27 2015 16:18:02
        _STATISTICS_WRITING_DATE_UTC: 2018-07-23 22:02:35
        _STATISTICS_WRITING_DATE_UTC-eng: 2018-07-23 22:02:35
        _STATISTICS_TAGS: BPS DURATION NUMBER_OF_FRAMES NUMBER_OF_BYTES
        _STATISTICS_TAGS-eng: BPS DURATION NUMBER_OF_FRAMES NUMBER_OF_BYTES
  Stream #1:1(rus): Audio: aac (LC), 48000 Hz, stereo, fltp (default)
      Metadata:
        title           : SHIZA Project MVO
        BPS             : 191999
        BPS-eng         : 191999
        DURATION        : 00:23:57.162000000
        DURATION-eng    : 00:23:57.162000000
        NUMBER_OF_FRAMES: 67367
        NUMBER_OF_FRAMES-eng: 67367
        NUMBER_OF_BYTES : 34491880
        NUMBER_OF_BYTES-eng: 34491880
        _STATISTICS_WRITING_APP: mkvmerge v7.8.0 ('River Man') 32bit built on Mar 27 2015 16:18:02
        _STATISTICS_WRITING_APP-eng: mkvmerge v7.8.0 ('River Man') 32bit built on Mar 27 2015 16:18:02
        _STATISTICS_WRITING_DATE_UTC: 2018-07-23 22:02:35
        _STATISTICS_WRITING_DATE_UTC-eng: 2018-07-23 22:02:35
        _STATISTICS_TAGS: BPS DURATION NUMBER_OF_FRAMES NUMBER_OF_BYTES
        _STATISTICS_TAGS-eng: BPS DURATION NUMBER_OF_FRAMES NUMBER_OF_BYTES
  Stream #1:2(rus): Subtitle: ass (ssa) (default)
      Metadata:
        BPS             : 9
        BPS-eng         : 9
        DURATION        : 00:15:53.660000000
        DURATION-eng    : 00:15:53.660000000
        NUMBER_OF_FRAMES: 12
        NUMBER_OF_FRAMES-eng: 12
        NUMBER_OF_BYTES : 1164
        NUMBER_OF_BYTES-eng: 1164
        _STATISTICS_WRITING_APP: mkvmerge v7.8.0 ('River Man') 32bit built on Mar 27 2015 16:18:02
        _STATISTICS_WRITING_APP-eng: mkvmerge v7.8.0 ('River Man') 32bit built on Mar 27 2015 16:18:02
        _STATISTICS_WRITING_DATE_UTC: 2018-07-23 22:02:35
        _STATISTICS_WRITING_DATE_UTC-eng: 2018-07-23 22:02:35
        _STATISTICS_TAGS: BPS DURATION NUMBER_OF_FRAMES NUMBER_OF_BYTES
        _STATISTICS_TAGS-eng: BPS DURATION NUMBER_OF_FRAMES NUMBER_OF_BYTES
Stream mapping:
  Stream #0:0 (hevc) -> settb:default
  Stream #1:0 (h264) -> settb:default
  psnr:default -> Stream #0:0 (wrapped_avframe)
  Stream #0:1 -> #0:1 (aac (native) -> pcm_s16le (native))
[swscaler @ 000001538023d7c0] No accelerated colorspace conversion found from yuv420p to bgr48le.
[swscaler @ 00000153803bb880] No accelerated colorspace conversion found from yuv420p to bgr48le.
[swscaler @ 00000153804a1a40] No accelerated colorspace conversion found from yuv420p to bgr48le.
[swscaler @ 000001538051fb80] No accelerated colorspace conversion found from yuv420p to bgr48le.
[swscaler @ 000001538057c640] No accelerated colorspace conversion found from yuv420p to bgr48le.
[swscaler @ 0000015380635040] No accelerated colorspace conversion found from yuv420p to bgr48le.
[swscaler @ 000001538065afc0] No accelerated colorspace conversion found from yuv420p to bgr48le.
[swscaler @ 00000153806b7a80] No accelerated colorspace conversion found from yuv420p to bgr48le.
[swscaler @ 0000015380713040] No accelerated colorspace conversion found from yuv420p to bgr48le.
[swscaler @ 00000153807a8040] No accelerated colorspace conversion found from yuv420p to bgr48le.
[swscaler @ 0000015380816040] No accelerated colorspace conversion found from yuv420p to bgr48le.
[swscaler @ 0000015380874040] No accelerated colorspace conversion found from yuv420p to bgr48le.
[swscaler @ 00000153808d6040] No accelerated colorspace conversion found from yuv420p to bgr48le.
[swscaler @ 000001538096f840] No accelerated colorspace conversion found from yuv420p to bgr48le.
[swscaler @ 00000153809cc040] No accelerated colorspace conversion found from yuv420p to bgr48le.
[swscaler @ 0000015380a46040] No accelerated colorspace conversion found from yuv420p to bgr48le.
Output #0, null, to 'pipe:':
  Metadata:
    encoder         : Lavf61.7.100
  Stream #0:0: Video: wrapped_avframe, yuv420p10le(tv, bt709, progressive), 1280x720 [SAR 1:1 DAR 16:9], q=2-31, 200 kb/s, 23.98 fps, 23.98 tbn
      Metadata:
        encoder         : Lavc61.19.100 wrapped_avframe
  Stream #0:1(rus): Audio: pcm_s16le, 48000 Hz, stereo, s16, 1536 kb/s (default)
      Metadata:
        title           : SHIZA Project MVO
        _STATISTICS_TAGS: BPS DURATION NUMBER_OF_FRAMES NUMBER_OF_BYTES
        BPS             : 191974
        DURATION        : 00:23:57.162000000
        NUMBER_OF_FRAMES: 67368
        NUMBER_OF_BYTES : 34487268
        _STATISTICS_WRITING_APP: mkvpropedit v66.0.0 ('Josie') 64-bit
        _STATISTICS_WRITING_DATE_UTC: 2025-07-19 13:52:08
        encoder         : Lavc61.19.100 pcm_s16le
frame=   84 fps=0.0 q=-0.0 size=N/A time=00:00:03.50 bitrate=N/A speed=6.94x    frame=  184 fps=179 q=-0.0 size=N/A time=00:00:07.67 bitrate=N/A speed=7.48x    frame=  284 fps=183 q=-0.0 size=N/A time=00:00:11.84 bitrate=N/A speed=7.65x    frame=  379 fps=184 q=-0.0 size=N/A time=00:00:15.80 bitrate=N/A speed=7.69x    frame=  480 fps=186 q=-0.0 size=N/A time=00:00:20.02 bitrate=N/A speed=7.76x    frame=  573 fps=186 q=-0.0 size=N/A time=00:00:23.89 bitrate=N/A speed=7.75x    frame=  672 fps=186 q=-0.0 size=N/A time=00:00:28.02 bitrate=N/A speed=7.76x    frame=  761 fps=185 q=-0.0 size=N/A time=00:00:31.74 bitrate=N/A speed=7.71x    frame=  867 fps=187 q=-0.0 size=N/A time=00:00:36.16 bitrate=N/A speed=7.79x    frame=  969 fps=188 q=-0.0 size=N/A time=00:00:40.41 bitrate=N/A speed=7.84x    frame= 1066 fps=188 q=-0.0 size=N/A time=00:00:44.46 bitrate=N/A speed=7.84x    frame= 1161 fps=188 q=-0.0 size=N/A time=00:00:48.42 bitrate=N/A speed=7.83x    frame= 1264 fps=189 q=-0.0 size=N/A time=00:00:52.71 bitrate=N/A speed=7.87x    frame= 1364 fps=189 q=-0.0 size=N/A time=00:00:56.89 bitrate=N/A speed=7.88x    frame= 1459 fps=188 q=-0.0 size=N/A time=00:01:00.85 bitrate=N/A speed=7.85x    frame= 1558 fps=188 q=-0.0 size=N/A time=00:01:04.98 bitrate=N/A speed=7.86x    frame= 1664 fps=190 q=-0.0 size=N/A time=00:01:09.40 bitrate=N/A speed=7.91x    frame= 1758 fps=189 q=-0.0 size=N/A time=00:01:13.32 bitrate=N/A speed= 7.9x    frame= 1859 fps=189 q=-0.0 size=N/A time=00:01:17.53 bitrate=N/A speed= 7.9x    frame= 1953 fps=189 q=-0.0 size=N/A time=00:01:21.45 bitrate=N/A speed=7.89x    frame= 2055 fps=190 q=-0.0 size=N/A time=00:01:25.71 bitrate=N/A speed=7.91x    frame= 2150 fps=189 q=-0.0 size=N/A time=00:01:29.67 bitrate=N/A speed=7.89x    frame= 2238 fps=189 q=-0.0 size=N/A time=00:01:33.34 bitrate=N/A speed=7.87x    frame= 2327 fps=188 q=-0.0 size=N/A time=00:01:37.05 bitrate=N/A speed=7.84x    frame= 2416 fps=187 q=-0.0 size=N/A time=00:01:40.76 bitrate=N/A speed=7.81x    frame= 2506 fps=187 q=-0.0 size=N/A time=00:01:44.52 bitrate=N/A speed=7.79x    frame= 2599 fps=187 q=-0.0 size=N/A time=00:01:48.39 bitrate=N/A speed=7.78x    frame= 2693 fps=186 q=-0.0 size=N/A time=00:01:52.32 bitrate=N/A speed=7.77x    frame= 2790 fps=186 q=-0.0 size=N/A time=00:01:56.36 bitrate=N/A speed=7.78x    frame= 2881 fps=186 q=-0.0 size=N/A time=00:02:00.16 bitrate=N/A speed=7.76x    frame= 2979 fps=186 q=-0.0 size=N/A time=00:02:04.24 bitrate=N/A speed=7.77x    frame= 3069 fps=186 q=-0.0 size=N/A time=00:02:08.00 bitrate=N/A speed=7.75x    frame= 3160 fps=186 q=-0.0 size=N/A time=00:02:11.79 bitrate=N/A speed=7.74x    frame= 3242 fps=185 q=-0.0 size=N/A time=00:02:15.21 bitrate=N/A speed=7.71x    frame= 3328 fps=184 q=-0.0 size=N/A time=00:02:18.80 bitrate=N/A speed=7.69x    frame= 3422 fps=184 q=-0.0 size=N/A time=00:02:22.72 bitrate=N/A speed=7.68x    frame= 3516 fps=184 q=-0.0 size=N/A time=00:02:26.64 bitrate=N/A speed=7.68x    frame= 3611 fps=184 q=-0.0 size=N/A time=00:02:30.60 bitrate=N/A speed=7.68x    frame= 3708 fps=184 q=-0.0 size=N/A time=00:02:34.65 bitrate=N/A speed=7.69x    frame= 3805 fps=184 q=-0.0 size=N/A time=00:02:38.70 bitrate=N/A speed=7.69x    frame= 3903 fps=184 q=-0.0 size=N/A time=00:02:42.78 bitrate=N/A speed=7.69x    frame= 4000 fps=185 q=-0.0 size=N/A time=00:02:46.83 bitrate=N/A speed= 7.7x    frame= 4097 fps=185 q=-0.0 size=N/A time=00:02:50.87 bitrate=N/A speed= 7.7x    frame= 4193 fps=185 q=-0.0 size=N/A time=00:02:54.88 bitrate=N/A speed=7.71x    frame= 4291 fps=185 q=-0.0 size=N/A time=00:02:58.97 bitrate=N/A speed=7.71x    frame= 4389 fps=185 q=-0.0 size=N/A time=00:03:03.05 bitrate=N/A speed=7.71x    frame= 4475 fps=185 q=-0.0 size=N/A time=00:03:06.64 bitrate=N/A speed= 7.7x    frame= 4577 fps=185 q=-0.0 size=N/A time=00:03:10.89 bitrate=N/A speed=7.71x    frame= 4675 fps=185 q=-0.0 size=N/A time=00:03:14.98 bitrate=N/A speed=7.71x    frame= 4770 fps=185 q=-0.0 size=N/A time=00:03:18.94 bitrate=N/A speed=7.71x    frame= 4872 fps=185 q=-0.0 size=N/A time=00:03:23.20 bitrate=N/A speed=7.72x    frame= 4970 fps=185 q=-0.0 size=N/A time=00:03:27.29 bitrate=N/A speed=7.73x    frame= 5063 fps=185 q=-0.0 size=N/A time=00:03:31.16 bitrate=N/A speed=7.72x    frame= 5169 fps=186 q=-0.0 size=N/A time=00:03:35.59 bitrate=N/A speed=7.74x    frame= 5269 fps=186 q=-0.0 size=N/A time=00:03:39.76 bitrate=N/A speed=7.74x    frame= 5367 fps=186 q=-0.0 size=N/A time=00:03:43.84 bitrate=N/A speed=7.75x    frame= 5466 fps=186 q=-0.0 size=N/A time=00:03:47.97 bitrate=N/A speed=7.75x    frame= 5559 fps=186 q=-0.0 size=N/A time=00:03:51.85 bitrate=N/A speed=7.75x    frame= 5659 fps=186 q=-0.0 size=N/A time=00:03:56.02 bitrate=N/A speed=7.75x    frame= 5757 fps=186 q=-0.0 size=N/A time=00:04:00.11 bitrate=N/A speed=7.76x    frame= 5857 fps=186 q=-0.0 size=N/A time=00:04:04.28 bitrate=N/A speed=7.76x    frame= 5956 fps=186 q=-0.0 size=N/A time=00:04:08.41 bitrate=N/A speed=7.77x    frame= 6044 fps=186 q=-0.0 size=N/A time=00:04:12.08 bitrate=N/A speed=7.76x    frame= 6143 fps=186 q=-0.0 size=N/A time=00:04:16.21 bitrate=N/A speed=7.76x    frame= 6254 fps=187 q=-0.0 size=N/A time=00:04:20.84 bitrate=N/A speed=7.78x    frame= 6352 fps=187 q=-0.0 size=N/A time=00:04:24.93 bitrate=N/A speed=7.78x    frame= 6449 fps=187 q=-0.0 size=N/A time=00:04:28.97 bitrate=N/A speed=7.78x    frame= 6547 fps=187 q=-0.0 size=N/A time=00:04:33.06 bitrate=N/A speed=7.78x    frame= 6647 fps=187 q=-0.0 size=N/A time=00:04:37.23 bitrate=N/A speed=7.79x    frame= 6745 fps=187 q=-0.0 size=N/A time=00:04:41.32 bitrate=N/A speed=7.79x    frame= 6842 fps=187 q=-0.0 size=N/A time=00:04:45.36 bitrate=N/A speed=7.79x    frame= 6939 fps=187 q=-0.0 size=N/A time=00:04:49.41 bitrate=N/A speed=7.79x    frame= 7032 fps=187 q=-0.0 size=N/A time=00:04:53.29 bitrate=N/A speed=7.79x    frame= 7124 fps=187 q=-0.0 size=N/A time=00:04:57.13 bitrate=N/A speed=7.78x    frame= 7215 fps=187 q=-0.0 size=N/A time=00:05:00.92 bitrate=N/A speed=7.78x    frame= 7304 fps=186 q=-0.0 size=N/A time=00:05:04.63 bitrate=N/A speed=7.77x    frame= 7406 fps=186 q=-0.0 size=N/A time=00:05:08.93 bitrate=N/A speed=7.78x    frame= 7503 fps=187 q=-0.0 size=N/A time=00:05:12.93 bitrate=N/A speed=7.78x    frame= 7601 fps=187 q=-0.0 size=N/A time=00:05:17.02 bitrate=N/A speed=7.78x    frame= 7702 fps=187 q=-0.0 size=N/A time=00:05:21.23 bitrate=N/A speed=7.79x    frame= 7797 fps=187 q=-0.0 size=N/A time=00:05:25.19 bitrate=N/A speed=7.78x    frame= 7898 fps=187 q=-0.0 size=N/A time=00:05:29.41 bitrate=N/A speed=7.79x    frame= 7995 fps=187 q=-0.0 size=N/A time=00:05:33.45 bitrate=N/A speed=7.79x    frame= 8084 fps=187 q=-0.0 size=N/A time=00:05:37.17 bitrate=N/A speed=7.78x    frame= 8193 fps=187 q=-0.0 size=N/A time=00:05:41.71 bitrate=N/A speed=7.79x    frame= 8290 fps=187 q=-0.0 size=N/A time=00:05:45.76 bitrate=N/A speed=7.79x    frame= 8389 fps=187 q=-0.0 size=N/A time=00:05:49.89 bitrate=N/A speed=7.79x    frame= 8475 fps=187 q=-0.0 size=N/A time=00:05:53.47 bitrate=N/A speed=7.79x    frame= 8585 fps=187 q=-0.0 size=N/A time=00:05:58.06 bitrate=N/A speed= 7.8x    frame= 8676 fps=187 q=-0.0 size=N/A time=00:06:01.86 bitrate=N/A speed=7.79x    frame= 8777 fps=187 q=-0.0 size=N/A time=00:06:06.07 bitrate=N/A speed= 7.8x    frame= 8865 fps=187 q=-0.0 size=N/A time=00:06:09.74 bitrate=N/A speed=7.79x    frame= 8970 fps=187 q=-0.0 size=N/A time=00:06:14.12 bitrate=N/A speed= 7.8x    frame= 9069 fps=187 q=-0.0 size=N/A time=00:06:18.25 bitrate=N/A speed= 7.8x    frame= 9159 fps=187 q=-0.0 size=N/A time=00:06:22.00 bitrate=N/A speed=7.79x    frame= 9266 fps=187 q=-0.0 size=N/A time=00:06:26.46 bitrate=N/A speed= 7.8x    frame= 9361 fps=187 q=-0.0 size=N/A time=00:06:30.43 bitrate=N/A speed= 7.8x    frame= 9460 fps=187 q=-0.0 size=N/A time=00:06:34.56 bitrate=N/A speed=7.81x    frame= 9559 fps=187 q=-0.0 size=N/A time=00:06:38.68 bitrate=N/A speed=7.81x    frame= 9656 fps=187 q=-0.0 size=N/A time=00:06:42.73 bitrate=N/A speed=7.81x    frame= 9760 fps=187 q=-0.0 size=N/A time=00:06:47.07 bitrate=N/A speed=7.81x    frame= 9857 fps=187 q=-0.0 size=N/A time=00:06:51.11 bitrate=N/A speed=7.81x    frame= 9954 fps=187 q=-0.0 size=N/A time=00:06:55.16 bitrate=N/A speed=7.81x    frame=10045 fps=187 q=-0.0 size=N/A time=00:06:58.96 bitrate=N/A speed=7.81x    frame=10146 fps=187 q=-0.0 size=N/A time=00:07:03.17 bitrate=N/A speed=7.81x    frame=10246 fps=187 q=-0.0 size=N/A time=00:07:07.34 bitrate=N/A speed=7.82x    frame=10342 fps=187 q=-0.0 size=N/A time=00:07:11.34 bitrate=N/A speed=7.81x    frame=10432 fps=187 q=-0.0 size=N/A time=00:07:15.10 bitrate=N/A speed=7.81x    frame=10539 fps=187 q=-0.0 size=N/A time=00:07:19.56 bitrate=N/A speed=7.82x    frame=10635 fps=187 q=-0.0 size=N/A time=00:07:23.56 bitrate=N/A speed=7.82x    frame=10735 fps=187 q=-0.0 size=N/A time=00:07:27.73 bitrate=N/A speed=7.82x    frame=10823 fps=187 q=-0.0 size=N/A time=00:07:31.40 bitrate=N/A speed=7.81x    frame=10932 fps=188 q=-0.0 size=N/A time=00:07:35.95 bitrate=N/A speed=7.82x    frame=11030 fps=188 q=-0.0 size=N/A time=00:07:40.04 bitrate=N/A speed=7.82x    frame=11128 fps=188 q=-0.0 size=N/A time=00:07:44.13 bitrate=N/A speed=7.82x    frame=11222 fps=188 q=-0.0 size=N/A time=00:07:48.05 bitrate=N/A speed=7.82x    frame=11318 fps=188 q=-0.0 size=N/A time=00:07:52.05 bitrate=N/A speed=7.82x    frame=11405 fps=187 q=-0.0 size=N/A time=00:07:55.68 bitrate=N/A speed=7.81x    frame=11497 fps=187 q=-0.0 size=N/A time=00:07:59.52 bitrate=N/A speed=7.81x    frame=11592 fps=187 q=-0.0 size=N/A time=00:08:03.48 bitrate=N/A speed=7.81x    frame=11695 fps=187 q=-0.0 size=N/A time=00:08:07.77 bitrate=N/A speed=7.81x    frame=11794 fps=187 q=-0.0 size=N/A time=00:08:11.90 bitrate=N/A speed=7.82x    frame=11895 fps=187 q=-0.0 size=N/A time=00:08:16.12 bitrate=N/A speed=7.82x    frame=11978 fps=187 q=-0.0 size=N/A time=00:08:19.58 bitrate=N/A speed=7.81x    frame=12074 fps=187 q=-0.0 size=N/A time=00:08:23.58 bitrate=N/A speed=7.81x    frame=12172 fps=187 q=-0.0 size=N/A time=00:08:27.67 bitrate=N/A speed=7.81x    frame=12271 fps=187 q=-0.0 size=N/A time=00:08:31.80 bitrate=N/A speed=7.81x    frame=12363 fps=187 q=-0.0 size=N/A time=00:08:35.64 bitrate=N/A speed=7.81x    frame=12457 fps=187 q=-0.0 size=N/A time=00:08:39.56 bitrate=N/A speed=7.81x    frame=12561 fps=187 q=-0.0 size=N/A time=00:08:43.89 bitrate=N/A speed=7.81x    frame=12657 fps=187 q=-0.0 size=N/A time=00:08:47.90 bitrate=N/A speed=7.81x    frame=12756 fps=187 q=-0.0 size=N/A time=00:08:52.03 bitrate=N/A speed=7.81x    frame=12845 fps=187 q=-0.0 size=N/A time=00:08:55.74 bitrate=N/A speed=7.81x    frame=12920 fps=187 q=-0.0 size=N/A time=00:08:58.87 bitrate=N/A speed= 7.8x    frame=13013 fps=187 q=-0.0 size=N/A time=00:09:02.75 bitrate=N/A speed=7.79x    frame=13102 fps=187 q=-0.0 size=N/A time=00:09:06.46 bitrate=N/A speed=7.79x    frame=13186 fps=187 q=-0.0 size=N/A time=00:09:09.96 bitrate=N/A speed=7.78x    frame=13285 fps=187 q=-0.0 size=N/A time=00:09:14.09 bitrate=N/A speed=7.78x    frame=13391 fps=187 q=-0.0 size=N/A time=00:09:18.51 bitrate=N/A speed=7.79x    frame=13492 fps=187 q=-0.0 size=N/A time=00:09:22.72 bitrate=N/A speed=7.79x    frame=13585 fps=187 q=-0.0 size=N/A time=00:09:26.60 bitrate=N/A speed=7.79x    frame=13689 fps=187 q=-0.0 size=N/A time=00:09:30.94 bitrate=N/A speed= 7.8x    frame=13786 fps=187 q=-0.0 size=N/A time=00:09:34.99 bitrate=N/A speed=7.79x    frame=13890 fps=187 q=-0.0 size=N/A time=00:09:39.32 bitrate=N/A speed= 7.8x    frame=13989 fps=187 q=-0.0 size=N/A time=00:09:43.45 bitrate=N/A speed= 7.8x    frame=14092 fps=187 q=-0.0 size=N/A time=00:09:47.75 bitrate=N/A speed= 7.8x    frame=14193 fps=187 q=-0.0 size=N/A time=00:09:51.96 bitrate=N/A speed=7.81x    frame=14288 fps=187 q=-0.0 size=N/A time=00:09:55.92 bitrate=N/A speed=7.81x    frame=14382 fps=187 q=-0.0 size=N/A time=00:09:59.84 bitrate=N/A speed= 7.8x    frame=14487 fps=187 q=-0.0 size=N/A time=00:10:04.22 bitrate=N/A speed=7.81x    frame=14583 fps=187 q=-0.0 size=N/A time=00:10:08.23 bitrate=N/A speed=7.81x    frame=14671 fps=187 q=-0.0 size=N/A time=00:10:11.90 bitrate=N/A speed=7.81x    frame=14785 fps=187 q=-0.0 size=N/A time=00:10:16.65 bitrate=N/A speed=7.81x    frame=14887 fps=187 q=-0.0 size=N/A time=00:10:20.91 bitrate=N/A speed=7.82x    frame=14988 fps=187 q=-0.0 size=N/A time=00:10:25.12 bitrate=N/A speed=7.82x    frame=15090 fps=188 q=-0.0 size=N/A time=00:10:29.37 bitrate=N/A speed=7.82x    frame=15189 fps=188 q=-0.0 size=N/A time=00:10:33.50 bitrate=N/A speed=7.82x    frame=15292 fps=188 q=-0.0 size=N/A time=00:10:37.80 bitrate=N/A speed=7.83x    frame=15389 fps=188 q=-0.0 size=N/A time=00:10:41.84 bitrate=N/A speed=7.83x    frame=15487 fps=188 q=-0.0 size=N/A time=00:10:45.93 bitrate=N/A speed=7.83x    frame=15586 fps=188 q=-0.0 size=N/A time=00:10:50.06 bitrate=N/A speed=7.83x    frame=15673 fps=188 q=-0.0 size=N/A time=00:10:53.69 bitrate=N/A speed=7.82x    frame=15766 fps=188 q=-0.0 size=N/A time=00:10:57.57 bitrate=N/A speed=7.82x    frame=15855 fps=187 q=-0.0 size=N/A time=00:11:01.28 bitrate=N/A speed=7.82x    frame=15952 fps=187 q=-0.0 size=N/A time=00:11:05.33 bitrate=N/A speed=7.82x    frame=16044 fps=187 q=-0.0 size=N/A time=00:11:09.16 bitrate=N/A speed=7.82x    frame=16135 fps=187 q=-0.0 size=N/A time=00:11:12.96 bitrate=N/A speed=7.81x    frame=16228 fps=187 q=-0.0 size=N/A time=00:11:16.84 bitrate=N/A speed=7.81x    frame=16322 fps=187 q=-0.0 size=N/A time=00:11:20.76 bitrate=N/A speed=7.81x    frame=16413 fps=187 q=-0.0 size=N/A time=00:11:24.55 bitrate=N/A speed=7.81x    frame=16504 fps=187 q=-0.0 size=N/A time=00:11:28.35 bitrate=N/A speed= 7.8x    frame=16595 fps=187 q=-0.0 size=N/A time=00:11:32.14 bitrate=N/A speed= 7.8x    frame=16686 fps=187 q=-0.0 size=N/A time=00:11:35.94 bitrate=N/A speed= 7.8x    frame=16778 fps=187 q=-0.0 size=N/A time=00:11:39.78 bitrate=N/A speed= 7.8x    frame=16877 fps=187 q=-0.0 size=N/A time=00:11:43.91 bitrate=N/A speed= 7.8x    frame=16972 fps=187 q=-0.0 size=N/A time=00:11:47.87 bitrate=N/A speed= 7.8x    frame=17065 fps=187 q=-0.0 size=N/A time=00:11:51.75 bitrate=N/A speed= 7.8x    frame=17153 fps=187 q=-0.0 size=N/A time=00:11:55.42 bitrate=N/A speed=7.79x    frame=17240 fps=187 q=-0.0 size=N/A time=00:11:59.05 bitrate=N/A speed=7.79x    frame=17327 fps=187 q=-0.0 size=N/A time=00:12:02.68 bitrate=N/A speed=7.78x    frame=17415 fps=187 q=-0.0 size=N/A time=00:12:06.35 bitrate=N/A speed=7.78x    frame=17506 fps=186 q=-0.0 size=N/A time=00:12:10.14 bitrate=N/A speed=7.78x    frame=17597 fps=186 q=-0.0 size=N/A time=00:12:13.94 bitrate=N/A speed=7.77x    frame=17689 fps=186 q=-0.0 size=N/A time=00:12:17.77 bitrate=N/A speed=7.77x    frame=17781 fps=186 q=-0.0 size=N/A time=00:12:21.61 bitrate=N/A speed=7.77x    frame=17869 fps=186 q=-0.0 size=N/A time=00:12:25.28 bitrate=N/A speed=7.77x    frame=17956 fps=186 q=-0.0 size=N/A time=00:12:28.91 bitrate=N/A speed=7.76x    frame=18051 fps=186 q=-0.0 size=N/A time=00:12:32.87 bitrate=N/A speed=7.76x    frame=18142 fps=186 q=-0.0 size=N/A time=00:12:36.67 bitrate=N/A speed=7.76x    frame=18236 fps=186 q=-0.0 size=N/A time=00:12:40.59 bitrate=N/A speed=7.76x    frame=18325 fps=186 q=-0.0 size=N/A time=00:12:44.30 bitrate=N/A speed=7.76x    frame=18417 fps=186 q=-0.0 size=N/A time=00:12:48.14 bitrate=N/A speed=7.76x    frame=18500 fps=186 q=-0.0 size=N/A time=00:12:51.60 bitrate=N/A speed=7.75x    frame=18596 fps=186 q=-0.0 size=N/A time=00:12:55.60 bitrate=N/A speed=7.75x    frame=18688 fps=186 q=-0.0 size=N/A time=00:12:59.44 bitrate=N/A speed=7.75x    frame=18782 fps=186 q=-0.0 size=N/A time=00:13:03.36 bitrate=N/A speed=7.75x    frame=18882 fps=186 q=-0.0 size=N/A time=00:13:07.53 bitrate=N/A speed=7.75x    frame=18981 fps=186 q=-0.0 size=N/A time=00:13:11.66 bitrate=N/A speed=7.75x    frame=19080 fps=186 q=-0.0 size=N/A time=00:13:15.79 bitrate=N/A speed=7.75x    frame=19174 fps=186 q=-0.0 size=N/A time=00:13:19.71 bitrate=N/A speed=7.75x    frame=19273 fps=186 q=-0.0 size=N/A time=00:13:23.84 bitrate=N/A speed=7.75x    frame=19370 fps=186 q=-0.0 size=N/A time=00:13:27.89 bitrate=N/A speed=7.75x    frame=19465 fps=186 q=-0.0 size=N/A time=00:13:31.85 bitrate=N/A speed=7.75x    frame=19568 fps=186 q=-0.0 size=N/A time=00:13:36.14 bitrate=N/A speed=7.76x    frame=19666 fps=186 q=-0.0 size=N/A time=00:13:40.23 bitrate=N/A speed=7.76x    frame=19758 fps=186 q=-0.0 size=N/A time=00:13:44.07 bitrate=N/A speed=7.75x    frame=19862 fps=186 q=-0.0 size=N/A time=00:13:48.41 bitrate=N/A speed=7.76x    frame=19960 fps=186 q=-0.0 size=N/A time=00:13:52.49 bitrate=N/A speed=7.76x    frame=20047 fps=186 q=-0.0 size=N/A time=00:13:56.12 bitrate=N/A speed=7.76x    frame=20149 fps=186 q=-0.0 size=N/A time=00:14:00.38 bitrate=N/A speed=7.76x    frame=20242 fps=186 q=-0.0 size=N/A time=00:14:04.26 bitrate=N/A speed=7.76x    frame=20341 fps=186 q=-0.0 size=N/A time=00:14:08.38 bitrate=N/A speed=7.76x    frame=20438 fps=186 q=-0.0 size=N/A time=00:14:12.43 bitrate=N/A speed=7.76x    frame=20536 fps=186 q=-0.0 size=N/A time=00:14:16.52 bitrate=N/A speed=7.76x    frame=20635 fps=186 q=-0.0 size=N/A time=00:14:20.65 bitrate=N/A speed=7.76x    frame=20734 fps=186 q=-0.0 size=N/A time=00:14:24.78 bitrate=N/A speed=7.76x    frame=20831 fps=186 q=-0.0 size=N/A time=00:14:28.82 bitrate=N/A speed=7.76x    frame=20926 fps=186 q=-0.0 size=N/A time=00:14:32.78 bitrate=N/A speed=7.76x    frame=21028 fps=186 q=-0.0 size=N/A time=00:14:37.04 bitrate=N/A speed=7.76x    frame=21123 fps=186 q=-0.0 size=N/A time=00:14:41.00 bitrate=N/A speed=7.76x    frame=21209 fps=186 q=-0.0 size=N/A time=00:14:44.59 bitrate=N/A speed=7.76x    frame=21314 fps=186 q=-0.0 size=N/A time=00:14:48.97 bitrate=N/A speed=7.76x    frame=21410 fps=186 q=-0.0 size=N/A time=00:14:52.97 bitrate=N/A speed=7.76x    frame=21515 fps=186 q=-0.0 size=N/A time=00:14:57.35 bitrate=N/A speed=7.77x    frame=21615 fps=186 q=-0.0 size=N/A time=00:15:01.52 bitrate=N/A speed=7.77x    frame=21713 fps=186 q=-0.0 size=N/A time=00:15:05.61 bitrate=N/A speed=7.77x    frame=21804 fps=186 q=-0.0 size=N/A time=00:15:09.40 bitrate=N/A speed=7.77x    frame=21911 fps=186 q=-0.0 size=N/A time=00:15:13.87 bitrate=N/A speed=7.77x    frame=22009 fps=186 q=-0.0 size=N/A time=00:15:17.95 bitrate=N/A speed=7.77x    frame=22102 fps=186 q=-0.0 size=N/A time=00:15:21.83 bitrate=N/A speed=7.77x    frame=22207 fps=186 q=-0.0 size=N/A time=00:15:26.21 bitrate=N/A speed=7.77x    frame=22297 fps=186 q=-0.0 size=N/A time=00:15:29.97 bitrate=N/A speed=7.77x    frame=22404 fps=186 q=-0.0 size=N/A time=00:15:34.43 bitrate=N/A speed=7.78x    frame=22503 fps=186 q=-0.0 size=N/A time=00:15:38.56 bitrate=N/A speed=7.78x    frame=22587 fps=186 q=-0.0 size=N/A time=00:15:42.06 bitrate=N/A speed=7.77x    frame=22697 fps=186 q=-0.0 size=N/A time=00:15:46.65 bitrate=N/A speed=7.78x    frame=22792 fps=186 q=-0.0 size=N/A time=00:15:50.61 bitrate=N/A speed=7.78x    frame=22889 fps=186 q=-0.0 size=N/A time=00:15:54.66 bitrate=N/A speed=7.78x    frame=22982 fps=186 q=-0.0 size=N/A time=00:15:58.54 bitrate=N/A speed=7.78x    frame=23077 fps=186 q=-0.0 size=N/A time=00:16:02.50 bitrate=N/A speed=7.77x    frame=23172 fps=186 q=-0.0 size=N/A time=00:16:06.46 bitrate=N/A speed=7.78x    frame=23271 fps=186 q=-0.0 size=N/A time=00:16:10.59 bitrate=N/A speed=7.78x    frame=23358 fps=186 q=-0.0 size=N/A time=00:16:14.22 bitrate=N/A speed=7.77x    frame=23445 fps=186 q=-0.0 size=N/A time=00:16:17.85 bitrate=N/A speed=7.77x    frame=23533 fps=186 q=-0.0 size=N/A time=00:16:21.52 bitrate=N/A speed=7.77x    frame=23625 fps=186 q=-0.0 size=N/A time=00:16:25.35 bitrate=N/A speed=7.77x    frame=23716 fps=186 q=-0.0 size=N/A time=00:16:29.15 bitrate=N/A speed=7.76x    frame=23807 fps=186 q=-0.0 size=N/A time=00:16:32.95 bitrate=N/A speed=7.76x    frame=23891 fps=186 q=-0.0 size=N/A time=00:16:36.45 bitrate=N/A speed=7.76x    frame=23990 fps=186 q=-0.0 size=N/A time=00:16:40.58 bitrate=N/A speed=7.76x    frame=24086 fps=186 q=-0.0 size=N/A time=00:16:44.58 bitrate=N/A speed=7.76x    frame=24186 fps=186 q=-0.0 size=N/A time=00:16:48.75 bitrate=N/A speed=7.76x    frame=24279 fps=186 q=-0.0 size=N/A time=00:16:52.63 bitrate=N/A speed=7.76x    frame=24377 fps=186 q=-0.0 size=N/A time=00:16:56.72 bitrate=N/A speed=7.76x    frame=24476 fps=186 q=-0.0 size=N/A time=00:17:00.85 bitrate=N/A speed=7.76x    frame=24577 fps=186 q=-0.0 size=N/A time=00:17:05.06 bitrate=N/A speed=7.76x    frame=24673 fps=186 q=-0.0 size=N/A time=00:17:09.06 bitrate=N/A speed=7.76x    frame=24770 fps=186 q=-0.0 size=N/A time=00:17:13.11 bitrate=N/A speed=7.76x    frame=24872 fps=186 q=-0.0 size=N/A time=00:17:17.36 bitrate=N/A speed=7.77x    frame=24966 fps=186 q=-0.0 size=N/A time=00:17:21.29 bitrate=N/A speed=7.76x    frame=25065 fps=186 q=-0.0 size=N/A time=00:17:25.41 bitrate=N/A speed=7.77x    frame=25162 fps=186 q=-0.0 size=N/A time=00:17:29.46 bitrate=N/A speed=7.77x    frame=25261 fps=186 q=-0.0 size=N/A time=00:17:33.59 bitrate=N/A speed=7.77x    frame=25356 fps=186 q=-0.0 size=N/A time=00:17:37.55 bitrate=N/A speed=7.77x    frame=25449 fps=186 q=-0.0 size=N/A time=00:17:41.43 bitrate=N/A speed=7.77x    frame=25537 fps=186 q=-0.0 size=N/A time=00:17:45.10 bitrate=N/A speed=7.76x    frame=25610 fps=186 q=-0.0 size=N/A time=00:17:48.15 bitrate=N/A speed=7.76x    frame=25711 fps=186 q=-0.0 size=N/A time=00:17:52.36 bitrate=N/A speed=7.76x    frame=25806 fps=186 q=-0.0 size=N/A time=00:17:56.32 bitrate=N/A speed=7.76x    frame=25897 fps=186 q=-0.0 size=N/A time=00:18:00.12 bitrate=N/A speed=7.76x    frame=25993 fps=186 q=-0.0 size=N/A time=00:18:04.12 bitrate=N/A speed=7.76x    frame=26090 fps=186 q=-0.0 size=N/A time=00:18:08.17 bitrate=N/A speed=7.76x    frame=26189 fps=186 q=-0.0 size=N/A time=00:18:12.29 bitrate=N/A speed=7.76x    frame=26285 fps=186 q=-0.0 size=N/A time=00:18:16.30 bitrate=N/A speed=7.76x    frame=26374 fps=186 q=-0.0 size=N/A time=00:18:20.01 bitrate=N/A speed=7.76x    frame=26478 fps=186 q=-0.0 size=N/A time=00:18:24.35 bitrate=N/A speed=7.76x    frame=26580 fps=186 q=-0.0 size=N/A time=00:18:28.60 bitrate=N/A speed=7.76x    frame=26677 fps=186 q=-0.0 size=N/A time=00:18:32.65 bitrate=N/A speed=7.76x    frame=26778 fps=186 q=-0.0 size=N/A time=00:18:36.86 bitrate=N/A speed=7.76x    frame=26869 fps=186 q=-0.0 size=N/A time=00:18:40.66 bitrate=N/A speed=7.76x    frame=26974 fps=186 q=-0.0 size=N/A time=00:18:45.04 bitrate=N/A speed=7.76x    frame=27058 fps=186 q=-0.0 size=N/A time=00:18:48.54 bitrate=N/A speed=7.76x    frame=27163 fps=186 q=-0.0 size=N/A time=00:18:52.92 bitrate=N/A speed=7.76x    frame=27267 fps=186 q=-0.0 size=N/A time=00:18:57.26 bitrate=N/A speed=7.76x    frame=27349 fps=186 q=-0.0 size=N/A time=00:19:00.68 bitrate=N/A speed=7.76x    frame=27453 fps=186 q=-0.0 size=N/A time=00:19:05.01 bitrate=N/A speed=7.76x    frame=27542 fps=186 q=-0.0 size=N/A time=00:19:08.73 bitrate=N/A speed=7.76x    frame=27637 fps=186 q=-0.0 size=N/A time=00:19:12.69 bitrate=N/A speed=7.76x    frame=27731 fps=186 q=-0.0 size=N/A time=00:19:16.61 bitrate=N/A speed=7.76x    frame=27832 fps=186 q=-0.0 size=N/A time=00:19:20.82 bitrate=N/A speed=7.76x    frame=27930 fps=186 q=-0.0 size=N/A time=00:19:24.91 bitrate=N/A speed=7.76x    frame=28032 fps=186 q=-0.0 size=N/A time=00:19:29.16 bitrate=N/A speed=7.76x    frame=28131 fps=186 q=-0.0 size=N/A time=00:19:33.29 bitrate=N/A speed=7.76x    frame=28230 fps=186 q=-0.0 size=N/A time=00:19:37.42 bitrate=N/A speed=7.76x    frame=28327 fps=186 q=-0.0 size=N/A time=00:19:41.47 bitrate=N/A speed=7.76x    frame=28421 fps=186 q=-0.0 size=N/A time=00:19:45.39 bitrate=N/A speed=7.76x    frame=28511 fps=186 q=-0.0 size=N/A time=00:19:49.14 bitrate=N/A speed=7.76x    frame=28616 fps=186 q=-0.0 size=N/A time=00:19:53.52 bitrate=N/A speed=7.76x    frame=28721 fps=186 q=-0.0 size=N/A time=00:19:57.90 bitrate=N/A speed=7.77x    frame=28820 fps=186 q=-0.0 size=N/A time=00:20:02.03 bitrate=N/A speed=7.77x    frame=28920 fps=186 q=-0.0 size=N/A time=00:20:06.20 bitrate=N/A speed=7.77x    frame=29019 fps=186 q=-0.0 size=N/A time=00:20:10.33 bitrate=N/A speed=7.77x    frame=29116 fps=186 q=-0.0 size=N/A time=00:20:14.37 bitrate=N/A speed=7.77x    frame=29212 fps=186 q=-0.0 size=N/A time=00:20:18.38 bitrate=N/A speed=7.77x    frame=29308 fps=186 q=-0.0 size=N/A time=00:20:22.38 bitrate=N/A speed=7.77x    frame=29409 fps=186 q=-0.0 size=N/A time=00:20:26.60 bitrate=N/A speed=7.77x    frame=29508 fps=186 q=-0.0 size=N/A time=00:20:30.72 bitrate=N/A speed=7.77x    frame=29609 fps=186 q=-0.0 size=N/A time=00:20:34.94 bitrate=N/A speed=7.77x    frame=29707 fps=186 q=-0.0 size=N/A time=00:20:39.02 bitrate=N/A speed=7.77x    frame=29803 fps=186 q=-0.0 size=N/A time=00:20:43.03 bitrate=N/A speed=7.77x    frame=29902 fps=186 q=-0.0 size=N/A time=00:20:47.16 bitrate=N/A speed=7.77x    frame=30000 fps=186 q=-0.0 size=N/A time=00:20:51.25 bitrate=N/A speed=7.77x    frame=30090 fps=186 q=-0.0 size=N/A time=00:20:55.00 bitrate=N/A speed=7.77x    frame=30202 fps=186 q=-0.0 size=N/A time=00:20:59.67 bitrate=N/A speed=7.78x    frame=30297 fps=186 q=-0.0 size=N/A time=00:21:03.63 bitrate=N/A speed=7.78x    frame=30398 fps=186 q=-0.0 size=N/A time=00:21:07.84 bitrate=N/A speed=7.78x    frame=30495 fps=186 q=-0.0 size=N/A time=00:21:11.89 bitrate=N/A speed=7.78x    frame=30593 fps=186 q=-0.0 size=N/A time=00:21:15.98 bitrate=N/A speed=7.78x    frame=30694 fps=187 q=-0.0 size=N/A time=00:21:20.19 bitrate=N/A speed=7.78x    frame=30793 fps=187 q=-0.0 size=N/A time=00:21:24.32 bitrate=N/A speed=7.78x    frame=30886 fps=187 q=-0.0 size=N/A time=00:21:28.20 bitrate=N/A speed=7.78x    frame=30984 fps=187 q=-0.0 size=N/A time=00:21:32.29 bitrate=N/A speed=7.78x    frame=31082 fps=187 q=-0.0 size=N/A time=00:21:36.37 bitrate=N/A speed=7.78x    frame=31176 fps=187 q=-0.0 size=N/A time=00:21:40.29 bitrate=N/A speed=7.78x    frame=31280 fps=187 q=-0.0 size=N/A time=00:21:44.63 bitrate=N/A speed=7.78x    frame=31382 fps=187 q=-0.0 size=N/A time=00:21:48.89 bitrate=N/A speed=7.78x    frame=31472 fps=187 q=-0.0 size=N/A time=00:21:52.64 bitrate=N/A speed=7.78x    frame=31575 fps=187 q=-0.0 size=N/A time=00:21:56.94 bitrate=N/A speed=7.78x    frame=31673 fps=187 q=-0.0 size=N/A time=00:22:01.02 bitrate=N/A speed=7.78x    frame=31765 fps=187 q=-0.0 size=N/A time=00:22:04.86 bitrate=N/A speed=7.78x    frame=31856 fps=187 q=-0.0 size=N/A time=00:22:08.66 bitrate=N/A speed=7.78x    frame=31949 fps=187 q=-0.0 size=N/A time=00:22:12.53 bitrate=N/A speed=7.78x    frame=32040 fps=187 q=-0.0 size=N/A time=00:22:16.33 bitrate=N/A speed=7.78x    frame=32134 fps=186 q=-0.0 size=N/A time=00:22:20.25 bitrate=N/A speed=7.78x    frame=32231 fps=186 q=-0.0 size=N/A time=00:22:24.30 bitrate=N/A speed=7.78x    frame=32327 fps=186 q=-0.0 size=N/A time=00:22:28.30 bitrate=N/A speed=7.78x    frame=32420 fps=186 q=-0.0 size=N/A time=00:22:32.18 bitrate=N/A speed=7.78x    frame=32513 fps=186 q=-0.0 size=N/A time=00:22:36.06 bitrate=N/A speed=7.78x    frame=32611 fps=186 q=-0.0 size=N/A time=00:22:40.15 bitrate=N/A speed=7.78x    frame=32714 fps=186 q=-0.0 size=N/A time=00:22:44.44 bitrate=N/A speed=7.78x    frame=32802 fps=186 q=-0.0 size=N/A time=00:22:48.11 bitrate=N/A speed=7.78x    frame=32903 fps=186 q=-0.0 size=N/A time=00:22:52.32 bitrate=N/A speed=7.78x    frame=32979 fps=186 q=-0.0 size=N/A time=00:22:55.49 bitrate=N/A speed=7.77x    frame=33076 fps=186 q=-0.0 size=N/A time=00:22:59.54 bitrate=N/A speed=7.77x    frame=33164 fps=186 q=-0.0 size=N/A time=00:23:03.21 bitrate=N/A speed=7.77x    frame=33257 fps=186 q=-0.0 size=N/A time=00:23:07.09 bitrate=N/A speed=7.77x    frame=33356 fps=186 q=-0.0 size=N/A time=00:23:11.22 bitrate=N/A speed=7.77x    frame=33458 fps=186 q=-0.0 size=N/A time=00:23:15.47 bitrate=N/A speed=7.77x    frame=33548 fps=186 q=-0.0 size=N/A time=00:23:19.23 bitrate=N/A speed=7.77x    frame=33651 fps=186 q=-0.0 size=N/A time=00:23:23.52 bitrate=N/A speed=7.77x    frame=33752 fps=186 q=-0.0 size=N/A time=00:23:27.73 bitrate=N/A speed=7.77x    frame=33837 fps=186 q=-0.0 size=N/A time=00:23:31.28 bitrate=N/A speed=7.77x    frame=33954 fps=186 q=-0.0 size=N/A time=00:23:36.16 bitrate=N/A speed=7.78x    frame=34042 fps=186 q=-0.0 size=N/A time=00:23:39.83 bitrate=N/A speed=7.77x    frame=34155 fps=186 q=-0.0 size=N/A time=00:23:44.54 bitrate=N/A speed=7.78x    frame=34259 fps=187 q=-0.0 size=N/A time=00:23:48.88 bitrate=N/A speed=7.78x    frame=34359 fps=187 q=-0.0 size=N/A time=00:23:53.05 bitrate=N/A speed=7.78x    [Parsed_psnr_10 @ 00000153ff1222c0] PSNR y:45.770943 u:50.441248 v:50.124770 average:46.823973 min:39.608724 max:inf
[out#0/null @ 00000153f3b28180] video:14806KiB audio:269472KiB subtitle:0KiB other streams:0KiB global headers:0KiB muxing overhead: unknown
frame=34457 fps=187 q=-0.0 Lsize=N/A time=00:23:57.14 bitrate=N/A speed=7.78x    
